<?xml version="1.0" standalone="no"?><!DOCTYPE svg PUBLIC "-//W3C//DTD SVG 1.1//EN" "http://www.w3.org/Graphics/SVG/1.1/DTD/svg11.dtd"><svg t="1511611604507" class="icon" style="" viewBox="0 0 1024 1024" version="1.1" xmlns="http://www.w3.org/2000/svg" p-id="8117" xmlns:xlink="http://www.w3.org/1999/xlink" width="128" height="128"><defs><style type="text/css"></style></defs><path d="M505.856 530.944c68.096 65.024 70.656 173.056 5.632 241.152-65.024 68.096-173.056 70.656-241.152 5.632-68.096-65.024-70.656-173.056-5.632-241.152 65.024-68.096 173.056-70.656 241.152-5.632z m-203.264 41.472c-45.056 47.104-43.52 121.856 4.096 166.912 47.104 45.056 121.856 43.52 166.912-4.096 45.056-47.104 43.52-121.856-4.096-166.912-47.104-44.544-121.856-43.008-166.912 4.096z m249.344-261.12l121.856-127.488c-31.232-30.208-32.768-79.872-2.56-111.104s79.872-32.768 111.104-2.56l70.144-63.488s82.432-13.312 120.32 23.04c37.888 36.352 45.568 135.168 45.568 135.168l-295.424 309.76c75.776 141.312 56.832 320.512-59.904 442.368-44.032 46.08-96.256 78.336-152.576 97.28l-1.536-55.296c42.496-16.896 82.432-42.496 115.712-77.824 96.256-100.864 115.2-246.784 59.392-366.08l-27.648-47.104L951.808 158.72s-0.512-59.904-20.48-78.848c-17.92-16.896-74.24-11.776-74.24-11.776l-72.704 75.776-37.888-36.352c-10.24-10.24-27.136-9.728-36.864 1.024-10.24 10.24-9.728 27.136 1.024 36.864l37.888 36.352-187.904 196.608-46.592-27.136c-121.344-50.176-266.752-24.576-363.008 76.288-125.44 131.072-120.32 338.944 10.24 463.872 40.448 38.4 88.064 64.512 138.24 78.336l1.024 54.272c-64-14.848-124.928-46.08-175.616-94.72-152.064-144.896-157.696-386.048-12.288-537.6 116.736-122.368 294.912-149.504 439.296-80.384z" fill="#ffffff" p-id="8118"></path><path d="M388.096 772.096H419.84V824.32h-31.744z" fill="#ffffff" p-id="8119"></path></svg>