<?xml version="1.0" standalone="no"?><!DOCTYPE svg PUBLIC "-//W3C//DTD SVG 1.1//EN" "http://www.w3.org/Graphics/SVG/1.1/DTD/svg11.dtd"><svg t="1511619283046" class="icon" style="" viewBox="0 0 1024 1024" version="1.1" xmlns="http://www.w3.org/2000/svg" p-id="12971" xmlns:xlink="http://www.w3.org/1999/xlink" width="128" height="128"><defs><style type="text/css"></style></defs><path d="M959.488 451.584a47.008 47.008 0 0 0-65.024 0L512 864.768 206.848 526.336h122.88c1.536 0 3.584 0 5.12-0.512 27.648-0.512 49.664-15.872 49.664-34.816l-0.512-320c9.216-20.992 29.184-28.672 67.584-30.208h143.36c22.016 3.072 35.84 9.728 44.032 23.04l0.512 339.456c0 20.992 23.04 37.888 51.712 37.888s51.712-16.896 51.712-37.888L742.4 187.904V140.8c0-49.152-40.96-89.088-91.648-89.088h-11.264l-267.776 0.512-0.512-0.512c-49.152 2.048-88.064 40.96-88.064 89.088v44.544h-0.512l0.512 252.416-184.832 0.512a48.32 48.32 0 0 0-35.84 16.384 43.296 43.296 0 0 0 2.048 60.416l407.04 436.736c2.048 3.072 4.096 6.144 7.168 8.704 9.216 8.704 21.504 13.312 33.28 12.8a47.68 47.68 0 0 0 33.28-12.8c2.56-2.56 5.12-5.632 7.168-8.704l407.04-436.736c17.92-17.92 17.92-46.08 0-63.488" fill="#ffffff" p-id="12972"></path></svg>