<?xml version="1.0" standalone="no"?><!DOCTYPE svg PUBLIC "-//W3C//DTD SVG 1.1//EN" "http://www.w3.org/Graphics/SVG/1.1/DTD/svg11.dtd"><svg t="1511619197626" class="icon" style="" viewBox="0 0 1024 1024" version="1.1" xmlns="http://www.w3.org/2000/svg" p-id="10563" xmlns:xlink="http://www.w3.org/1999/xlink" width="128" height="128"><defs><style type="text/css"></style></defs><path d="M698.048 800.448c-56.384 39.68-122.56 59.52-189.952 58.752-8.96-0.128-17.792-0.832-26.56-1.472-3.584-0.384-7.168-0.96-10.688-1.472a266.56 266.56 0 0 1-20.48-3.136c-4.224-0.704-8.32-1.92-12.352-2.88a296.128 296.128 0 0 1-19.648-4.8c-3.072-1.152-5.952-2.112-8.96-3.328a246.848 246.848 0 0 1-22.08-8l-4.8-1.92a553.6 553.6 0 0 1-24.768-12.16 326.656 326.656 0 0 1-95.296-78.72 324.992 324.992 0 0 1-74.816-207.808h85.44L136.576 327.808 0 533.504h85.248c0 90.112 28.096 173.76 75.584 242.944 0.64 1.024 0.96 2.112 1.6 3.008 4.864 7.168 10.432 13.632 15.68 20.224 1.984 2.432 3.776 4.928 5.888 7.616 7.68 9.344 16 18.24 24.512 27.072l2.304 2.368c28.608 28.8 60.8 52.928 96 72.32l2.816 1.6a432.293 432.293 0 0 0 30.976 15.104l7.808 3.456a703.936 703.936 0 0 0 40.896 14.72c8.128 2.368 16.384 4.48 24.832 6.4 5.632 1.28 11.008 2.752 16.768 3.84 2.304 0.512 4.48 1.28 6.784 1.472 8 1.472 16 2.176 23.808 3.2 2.944 0.448 5.76 0.96 8.576 1.28a422.08 422.08 0 0 0 286.528-75.52 51.648 51.648 0 0 0 12.672-71.552 50.752 50.752 0 0 0-71.232-12.608z m240.448-307.84c0-89.92-27.712-173.44-75.008-242.304l-1.728-3.456a525.696 525.696 0 0 0-18.816-24.32 30.016 30.016 0 0 1-2.112-2.944 426.816 426.816 0 0 0-159.36-120.128l-5.12-2.304a511.68 511.68 0 0 0-30.208-11.072c-3.52-1.152-7.168-2.496-10.88-3.584a423.872 423.872 0 0 0-26.752-7.04c-4.992-1.088-10.112-2.368-15.104-3.392-2.496-0.448-4.736-1.216-7.36-1.728-6.784-1.088-13.376-1.728-20.16-2.56-4.736-0.512-9.216-1.216-13.952-1.728a440.64 440.64 0 0 0-33.92-1.728c-1.984 0-4.032-0.32-6.016-0.32a421.504 421.504 0 0 0-244.672 77.568 51.584 51.584 0 0 0-12.48 71.68 51.072 51.072 0 0 0 71.36 12.48 320.448 320.448 0 0 1 216.768-57.216c2.944 0.192 5.696 0.64 8.576 1.088 7.68 0.96 15.36 1.984 22.912 3.584 3.264 0.64 6.656 1.472 9.792 2.176 7.488 1.728 14.72 3.456 21.952 5.632 2.368 0.64 4.544 1.472 6.784 2.368 8.32 2.688 16.512 5.568 24.32 8.96 0.896 0.192 1.728 0.832 2.496 1.088 47.808 20.608 89.6 52.352 122.368 92.16 0.064 0.128 0.192 0.384 0.512 0.64a325.632 325.632 0 0 1 73.664 206.4h-85.44l136.768 205.76L1024 492.608h-85.504z" fill="#ffffff" p-id="10564"></path></svg>