<?xml version="1.0" standalone="no"?><!DOCTYPE svg PUBLIC "-//W3C//DTD SVG 1.1//EN" "http://www.w3.org/Graphics/SVG/1.1/DTD/svg11.dtd"><svg t="1511609732146" class="icon" style="" viewBox="0 0 1024 1024" version="1.1" xmlns="http://www.w3.org/2000/svg" p-id="4238" xmlns:xlink="http://www.w3.org/1999/xlink" width="200" height="200"><defs><style type="text/css"></style></defs><path d="M1017.195876 461.081459l-184.739631-229.773113c-18.934533-25.587206-57.315342-25.587206-76.761619 0l-184.73963 229.773113c-12.793603 18.934533 0 44.521739 18.934533 44.521739h70.108945c0 134.076962 0 306.022989-242.566716 446.24088-6.14093 6.14093 0 12.793603 6.140929 12.793603 452.893553-70.108946 491.274363-376.131934 491.274363-459.034483h76.761619c25.587206 0 38.38081-25.075462 25.587207-44.521739z m-580.317841 57.315343h-76.76162c0-134.076962 0-306.022989 242.566717-446.24088 6.14093-6.14093 0-12.793603-6.14093-12.793603-452.893553 70.108946-491.274363 376.131934-491.274362 459.034483h-76.76162c-25.587206 0-38.38081 25.587206-18.934532 44.521739l184.73963 229.773113c18.934533 25.587206 57.315342 25.587206 76.761619 0l184.73963-229.773113c12.793603-18.934533 0-44.521739-18.934532-44.521739z" fill="#ffffff" p-id="4239"></path></svg>